<svg width="352pt" height="28pt" viewBox="0 0 352 28" xmlns="http://www.w3.org/2000/svg"><g stroke-linecap="round" fill-rule="evenodd" fill="#ffffff"><path d="M 0 18.311 L 0 8.948 A 14.035 14.035 0 0 1 0.134 6.928 Q 0.477 4.581 1.699 3.494 A 3.456 3.456 0 0 1 2.515 2.954 A 4.327 4.327 0 0 1 3.54 2.625 Q 4.102 2.515 4.761 2.515 Q 8.825 2.515 9.242 7.114 A 12.337 12.337 0 0 1 9.29 8.228 L 9.29 11.182 L 6.128 11.182 L 6.128 8.435 A 15.721 15.721 0 0 0 6.111 7.664 Q 6.058 6.596 5.847 6.061 A 1.181 1.181 0 0 0 5.591 5.654 Q 5.286 5.347 4.749 5.347 A 1.355 1.355 0 0 0 4.271 5.426 Q 3.908 5.562 3.698 5.931 A 1.602 1.602 0 0 0 3.614 6.104 Q 3.346 6.742 3.304 7.953 A 13.597 13.597 0 0 0 3.296 8.423 L 3.296 18.457 A 15.765 15.765 0 0 0 3.315 19.262 Q 3.355 20.045 3.48 20.554 A 2.723 2.723 0 0 0 3.601 20.935 A 1.33 1.33 0 0 0 3.848 21.336 Q 4.109 21.619 4.527 21.669 A 1.565 1.565 0 0 0 4.712 21.68 Q 5.411 21.68 5.733 21.11 A 1.578 1.578 0 0 0 5.823 20.923 Q 6.128 20.166 6.128 18.42 L 6.128 15.344 L 9.339 15.344 L 9.339 18.384 A 13.947 13.947 0 0 1 9.251 20.007 Q 9.026 21.917 8.228 22.992 A 3.537 3.537 0 0 1 6.223 24.311 Q 5.555 24.487 4.737 24.487 A 5.621 5.621 0 0 1 3.304 24.316 A 3.747 3.747 0 0 1 1.178 22.894 Q 0.3 21.707 0.077 19.743 A 12.686 12.686 0 0 1 0 18.311 Z M 159.314 18.311 L 159.314 8.948 A 14.035 14.035 0 0 1 159.448 6.928 Q 159.791 4.581 161.013 3.494 A 3.456 3.456 0 0 1 161.829 2.954 A 4.327 4.327 0 0 1 162.854 2.625 Q 163.416 2.515 164.075 2.515 Q 168.139 2.515 168.556 7.114 A 12.337 12.337 0 0 1 168.604 8.228 L 168.604 11.182 L 165.442 11.182 L 165.442 8.435 A 15.721 15.721 0 0 0 165.425 7.664 Q 165.372 6.596 165.161 6.061 A 1.181 1.181 0 0 0 164.905 5.654 Q 164.6 5.347 164.063 5.347 A 1.355 1.355 0 0 0 163.585 5.426 Q 163.222 5.562 163.012 5.931 A 1.602 1.602 0 0 0 162.928 6.104 Q 162.66 6.742 162.618 7.953 A 13.597 13.597 0 0 0 162.61 8.423 L 162.61 18.457 A 15.765 15.765 0 0 0 162.629 19.262 Q 162.669 20.045 162.794 20.554 A 2.723 2.723 0 0 0 162.915 20.935 A 1.33 1.33 0 0 0 163.162 21.336 Q 163.423 21.619 163.841 21.669 A 1.565 1.565 0 0 0 164.026 21.68 Q 164.725 21.68 165.047 21.11 A 1.578 1.578 0 0 0 165.137 20.923 Q 165.442 20.166 165.442 18.42 L 165.442 15.344 L 168.653 15.344 L 168.653 18.384 A 13.947 13.947 0 0 1 168.565 20.007 Q 168.34 21.917 167.542 22.992 A 3.537 3.537 0 0 1 165.537 24.311 Q 164.869 24.487 164.051 24.487 A 5.621 5.621 0 0 1 162.618 24.316 A 3.747 3.747 0 0 1 160.492 22.894 Q 159.614 21.707 159.391 19.743 A 12.686 12.686 0 0 1 159.314 18.311 Z M 250.171 9.827 L 250.171 24.243 L 246.936 24.243 L 246.936 10.022 A 2.821 2.821 0 0 0 246.896 9.527 Q 246.815 9.077 246.576 8.777 A 1.167 1.167 0 0 0 245.84 8.351 A 1.759 1.759 0 0 0 245.532 8.325 A 1.271 1.271 0 0 0 244.946 8.458 Q 244.66 8.604 244.452 8.911 A 2.114 2.114 0 0 0 244.171 9.537 Q 244.093 9.816 244.068 10.149 A 4.424 4.424 0 0 0 244.055 10.486 L 244.055 24.243 L 240.821 24.243 L 240.821 5.933 L 244.055 5.933 L 244.055 8.032 A 3.073 3.073 0 0 1 245.105 6.384 A 2.864 2.864 0 0 1 246.997 5.713 A 3.446 3.446 0 0 1 248.423 5.986 Q 249.9 6.651 250.129 8.933 A 8.952 8.952 0 0 1 250.171 9.827 Z M 117.859 20.093 L 117.859 5.933 L 121.106 5.933 L 121.106 19.592 A 7.319 7.319 0 0 0 121.128 20.182 Q 121.175 20.755 121.319 21.121 A 1.629 1.629 0 0 0 121.387 21.271 A 0.953 0.953 0 0 0 122.053 21.773 A 1.689 1.689 0 0 0 122.437 21.814 A 1.367 1.367 0 0 0 123.2 21.61 Q 123.739 21.259 123.871 20.302 A 5.029 5.029 0 0 0 123.914 19.617 L 123.926 5.933 L 127.149 5.933 L 127.149 24.243 L 123.914 24.243 L 123.914 22.339 A 4.112 4.112 0 0 1 123.399 23.347 Q 122.616 24.44 121.21 24.474 A 3.765 3.765 0 0 1 121.118 24.475 A 3.399 3.399 0 0 1 119.617 24.166 Q 118.181 23.468 117.918 21.193 A 9.601 9.601 0 0 1 117.859 20.093 Z M 321.021 20.093 L 321.021 5.933 L 324.268 5.933 L 324.268 19.592 A 7.319 7.319 0 0 0 324.29 20.182 Q 324.336 20.755 324.481 21.121 A 1.629 1.629 0 0 0 324.549 21.271 A 0.953 0.953 0 0 0 325.214 21.773 A 1.689 1.689 0 0 0 325.598 21.814 A 1.367 1.367 0 0 0 326.361 21.61 Q 326.9 21.259 327.033 20.302 A 5.029 5.029 0 0 0 327.075 19.617 L 327.088 5.933 L 330.31 5.933 L 330.31 24.243 L 327.075 24.243 L 327.075 22.339 A 4.112 4.112 0 0 1 326.561 23.347 Q 325.778 24.44 324.371 24.474 A 3.765 3.765 0 0 1 324.28 24.475 A 3.399 3.399 0 0 1 322.779 24.166 Q 321.343 23.468 321.08 21.193 A 9.601 9.601 0 0 1 321.021 20.093 Z M 262.073 14.148 L 261.023 14.099 L 261.023 24.243 L 257.752 24.243 L 257.752 2.759 L 263.159 2.759 A 6.745 6.745 0 0 1 264.039 2.812 Q 264.494 2.872 264.863 2.999 A 2.608 2.608 0 0 1 265.674 3.436 A 3.027 3.027 0 0 1 266.587 4.721 A 4.085 4.085 0 0 1 266.767 5.328 A 9.772 9.772 0 0 1 266.916 6.251 Q 266.973 6.734 267.001 7.297 A 24.111 24.111 0 0 1 267.029 8.502 A 15.03 15.03 0 0 1 266.996 9.53 Q 266.926 10.557 266.703 11.242 A 3.713 3.713 0 0 1 266.614 11.487 A 2.277 2.277 0 0 1 265.28 12.794 A 3.076 3.076 0 0 1 265.076 12.866 A 1.813 1.813 0 0 1 266.374 13.8 A 3.092 3.092 0 0 1 266.626 14.368 A 5.21 5.21 0 0 1 266.808 15.135 Q 267.023 16.394 267.059 18.808 A 68.049 68.049 0 0 1 267.066 19.806 Q 267.066 23.862 267.183 24.231 A 0.187 0.187 0 0 0 267.188 24.243 L 263.916 24.243 A 0.695 0.695 0 0 1 263.888 24.069 Q 263.808 23.213 263.796 18.326 A 752.068 752.068 0 0 1 263.794 16.541 A 9.335 9.335 0 0 0 263.775 15.924 Q 263.714 15.002 263.452 14.642 A 0.971 0.971 0 0 0 263.079 14.343 Q 262.705 14.163 262.073 14.148 Z M 209.839 11.023 L 209.839 12.024 L 206.946 12.024 L 206.946 10.815 A 8.82 8.82 0 0 0 206.924 10.166 Q 206.867 9.4 206.665 8.966 A 1.157 1.157 0 0 0 206.441 8.635 Q 206.17 8.362 205.731 8.362 Q 205.271 8.362 204.98 8.55 A 0.927 0.927 0 0 0 204.767 8.74 A 1.082 1.082 0 0 0 204.593 9.055 Q 204.48 9.36 204.46 9.825 A 4.846 4.846 0 0 0 204.456 10.034 A 3.307 3.307 0 0 0 205.026 11.872 A 4.989 4.989 0 0 0 205.75 12.732 L 207.483 14.307 Q 210.157 16.797 210.157 19.788 A 8.274 8.274 0 0 1 210.063 21.076 Q 209.841 22.479 209.095 23.303 A 3.286 3.286 0 0 1 207.688 24.2 Q 207.158 24.381 206.51 24.443 A 7.473 7.473 0 0 1 205.799 24.475 A 6.183 6.183 0 0 1 204.546 24.357 Q 203.812 24.205 203.257 23.858 A 3.148 3.148 0 0 1 202.503 23.199 Q 201.508 22.004 201.445 19.453 A 14.215 14.215 0 0 1 201.441 19.104 L 201.441 17.92 L 204.48 17.92 L 204.48 19.397 Q 204.48 20.849 204.921 21.437 A 0.954 0.954 0 0 0 205.725 21.838 A 1.578 1.578 0 0 0 206.084 21.8 Q 206.335 21.742 206.51 21.593 A 0.925 0.925 0 0 0 206.678 21.405 A 1.299 1.299 0 0 0 206.83 21.08 Q 206.939 20.748 206.963 20.241 A 6.401 6.401 0 0 0 206.97 19.934 A 4.044 4.044 0 0 0 206.262 17.672 Q 205.89 17.108 205.323 16.575 A 7.81 7.81 0 0 0 205.286 16.541 Q 205.243 16.498 204.673 15.989 A 418.08 418.08 0 0 0 204.499 15.833 A 157.093 157.093 0 0 1 204.243 15.604 Q 203.737 15.15 203.638 15.051 A 7.4 7.4 0 0 1 202.176 13.256 A 6.062 6.062 0 0 1 201.38 10.205 A 6.746 6.746 0 0 1 201.586 8.455 Q 202.198 6.183 204.621 5.793 A 6.813 6.813 0 0 1 205.701 5.713 A 5.946 5.946 0 0 1 206.875 5.821 Q 207.559 5.959 208.078 6.273 A 2.938 2.938 0 0 1 208.844 6.94 Q 209.839 8.167 209.839 11.023 Z M 82.703 24.243 L 75.354 24.243 L 75.354 2.759 L 82.556 2.759 L 82.556 5.579 L 78.626 5.579 L 78.626 11.829 L 82.361 11.829 L 82.361 14.587 L 78.626 14.587 L 78.626 21.423 L 82.703 21.423 L 82.703 24.243 Z M 318.006 5.933 L 318.006 21.985 A 7.775 7.775 0 0 1 317.877 23.445 Q 317.622 24.776 316.864 25.659 A 3.37 3.37 0 0 1 315.507 26.592 Q 314.944 26.813 314.236 26.911 A 8.956 8.956 0 0 1 313.007 26.99 A 9.169 9.169 0 0 1 311.214 26.825 Q 310.136 26.61 309.292 26.114 A 5.171 5.171 0 0 1 308.667 25.684 L 309.803 23.645 Q 310.896 24.343 311.878 24.516 A 3.658 3.658 0 0 0 312.512 24.573 A 3.91 3.91 0 0 0 313.127 24.528 Q 313.903 24.404 314.27 23.938 A 2.196 2.196 0 0 0 314.659 23.146 Q 314.771 22.737 314.771 22.229 L 314.771 20.776 A 2.948 2.948 0 0 1 314.516 21.33 Q 314.312 21.669 314.032 21.885 A 1.719 1.719 0 0 1 313.837 22.015 A 2.525 2.525 0 0 1 313.171 22.274 Q 312.751 22.375 312.232 22.375 A 3.982 3.982 0 0 1 311.222 22.256 A 2.48 2.48 0 0 1 309.577 20.947 A 5.841 5.841 0 0 1 309.102 19.644 Q 308.838 18.561 308.838 17.139 L 308.838 11.243 A 13.197 13.197 0 0 1 308.96 9.363 Q 309.282 7.136 310.456 6.268 A 3.022 3.022 0 0 1 312.305 5.713 L 312.354 5.713 A 2.955 2.955 0 0 1 313.315 5.859 Q 314.19 6.159 314.599 7.075 A 3.434 3.434 0 0 1 314.771 7.556 L 314.771 5.933 L 318.006 5.933 Z M 93.921 18.152 L 93.921 11.328 A 9.854 9.854 0 0 1 94.122 9.244 Q 94.889 5.713 98.596 5.713 Q 100.097 5.713 101.042 6.249 A 2.86 2.86 0 0 1 102.045 7.19 A 5.155 5.155 0 0 1 102.647 8.534 Q 102.842 9.188 102.93 9.981 A 12.765 12.765 0 0 1 103.003 11.389 L 103.003 15.308 L 97.18 15.308 L 97.18 18.909 A 17.788 17.788 0 0 0 97.192 19.574 Q 97.242 20.91 97.51 21.332 A 1.059 1.059 0 0 0 98.273 21.834 A 1.473 1.473 0 0 0 98.499 21.851 Q 99.158 21.851 99.353 21.545 A 2.714 2.714 0 0 0 99.635 20.933 A 2.302 2.302 0 0 0 99.732 20.447 Q 99.776 19.94 99.78 19.094 A 36.7 36.7 0 0 0 99.781 18.909 L 99.781 17.297 L 102.979 17.297 L 102.979 18.274 A 25.485 25.485 0 0 1 102.954 19.431 Q 102.881 21.036 102.588 21.851 Q 102.206 22.912 101.708 23.403 A 1.969 1.969 0 0 1 101.685 23.425 A 3.37 3.37 0 0 1 100.398 24.185 Q 99.574 24.463 98.462 24.463 A 6.159 6.159 0 0 1 96.996 24.302 Q 96.025 24.063 95.382 23.473 A 3.497 3.497 0 0 1 94.483 22.107 Q 94.078 21.026 93.965 19.451 A 18.156 18.156 0 0 1 93.921 18.152 Z M 136.621 18.152 L 136.621 11.328 A 9.854 9.854 0 0 1 136.822 9.244 Q 137.589 5.713 141.297 5.713 Q 142.797 5.713 143.742 6.249 A 2.86 2.86 0 0 1 144.745 7.19 A 5.155 5.155 0 0 1 145.348 8.534 Q 145.542 9.188 145.63 9.981 A 12.765 12.765 0 0 1 145.703 11.389 L 145.703 15.308 L 139.881 15.308 L 139.881 18.909 A 17.788 17.788 0 0 0 139.892 19.574 Q 139.942 20.91 140.21 21.332 A 1.059 1.059 0 0 0 140.973 21.834 A 1.473 1.473 0 0 0 141.199 21.851 Q 141.858 21.851 142.053 21.545 A 2.714 2.714 0 0 0 142.335 20.933 A 2.302 2.302 0 0 0 142.432 20.447 Q 142.476 19.94 142.48 19.094 A 36.7 36.7 0 0 0 142.481 18.909 L 142.481 17.297 L 145.679 17.297 L 145.679 18.274 A 25.485 25.485 0 0 1 145.655 19.431 Q 145.581 21.036 145.288 21.851 Q 144.907 22.912 144.409 23.403 A 1.969 1.969 0 0 1 144.385 23.425 A 3.37 3.37 0 0 1 143.099 24.185 Q 142.274 24.463 141.162 24.463 A 6.159 6.159 0 0 1 139.696 24.302 Q 138.725 24.063 138.082 23.473 A 3.497 3.497 0 0 1 137.183 22.107 Q 136.779 21.026 136.665 19.451 A 18.156 18.156 0 0 1 136.621 18.152 Z M 333.264 18.152 L 333.264 11.328 A 9.854 9.854 0 0 1 333.465 9.244 Q 334.232 5.713 337.94 5.713 Q 339.44 5.713 340.385 6.249 A 2.86 2.86 0 0 1 341.388 7.19 A 5.155 5.155 0 0 1 341.991 8.534 Q 342.185 9.188 342.273 9.981 A 12.765 12.765 0 0 1 342.346 11.389 L 342.346 15.308 L 336.524 15.308 L 336.524 18.909 A 17.788 17.788 0 0 0 336.535 19.574 Q 336.586 20.91 336.853 21.332 A 1.059 1.059 0 0 0 337.616 21.834 A 1.473 1.473 0 0 0 337.842 21.851 Q 338.501 21.851 338.697 21.545 A 2.714 2.714 0 0 0 338.979 20.933 A 2.302 2.302 0 0 0 339.075 20.447 Q 339.119 19.94 339.123 19.094 A 36.7 36.7 0 0 0 339.124 18.909 L 339.124 17.297 L 342.322 17.297 L 342.322 18.274 A 25.485 25.485 0 0 1 342.298 19.431 Q 342.224 21.036 341.931 21.851 Q 341.55 22.912 341.052 23.403 A 1.969 1.969 0 0 1 341.028 23.425 A 3.37 3.37 0 0 1 339.742 24.185 Q 338.917 24.463 337.805 24.463 A 6.159 6.159 0 0 1 336.339 24.302 Q 335.368 24.063 334.725 23.473 A 3.497 3.497 0 0 1 333.826 22.107 Q 333.422 21.026 333.308 19.451 A 18.156 18.156 0 0 1 333.264 18.152 Z M 171.009 19.434 L 171.009 18.262 Q 171.009 16.573 171.668 15.473 A 3.618 3.618 0 0 1 172.278 14.709 Q 173.011 13.999 174.655 13.327 A 17.943 17.943 0 0 1 175.049 13.171 Q 175.32 13.069 175.752 12.909 A 222.587 222.587 0 0 1 176.032 12.805 A 246.308 246.308 0 0 0 176.323 12.698 Q 176.725 12.549 176.917 12.476 L 176.917 10.876 Q 176.917 9.47 176.726 8.918 A 1.324 1.324 0 0 0 176.703 8.856 Q 176.502 8.357 175.815 8.327 A 2.057 2.057 0 0 0 175.727 8.325 A 1.601 1.601 0 0 0 175.357 8.365 A 0.904 0.904 0 0 0 174.707 8.887 Q 174.502 9.337 174.461 10.282 A 11.572 11.572 0 0 0 174.451 10.779 L 174.451 11.597 L 171.253 11.597 L 171.253 11.047 A 11.186 11.186 0 0 1 171.343 9.577 Q 171.548 8.031 172.223 7.08 Q 173.194 5.713 175.666 5.713 A 7.01 7.01 0 0 1 176.943 5.821 Q 177.641 5.951 178.176 6.235 A 3.044 3.044 0 0 1 179.181 7.08 Q 179.924 8.053 180.138 9.72 A 11.506 11.506 0 0 1 180.225 11.182 L 180.225 24.243 L 176.966 24.243 L 176.966 22.424 A 2.866 2.866 0 0 1 176.032 23.846 Q 175.342 24.426 174.366 24.426 A 3.897 3.897 0 0 1 173.367 24.307 A 2.497 2.497 0 0 1 171.802 23.138 A 4.693 4.693 0 0 1 171.338 22.04 Q 171.024 20.963 171.009 19.434 Z M 228.54 19.434 L 228.54 18.262 Q 228.54 16.573 229.2 15.473 A 3.618 3.618 0 0 1 229.81 14.709 Q 230.543 13.999 232.186 13.327 A 17.943 17.943 0 0 1 232.581 13.171 Q 232.852 13.069 233.284 12.909 A 222.587 222.587 0 0 1 233.563 12.805 A 246.308 246.308 0 0 0 233.855 12.698 Q 234.256 12.549 234.449 12.476 L 234.449 10.876 Q 234.449 9.47 234.258 8.918 A 1.324 1.324 0 0 0 234.235 8.856 Q 234.034 8.357 233.346 8.327 A 2.057 2.057 0 0 0 233.258 8.325 A 1.601 1.601 0 0 0 232.889 8.365 A 0.904 0.904 0 0 0 232.239 8.887 Q 232.033 9.337 231.993 10.282 A 11.572 11.572 0 0 0 231.983 10.779 L 231.983 11.597 L 228.784 11.597 L 228.784 11.047 A 11.186 11.186 0 0 1 228.875 9.577 Q 229.08 8.031 229.755 7.08 Q 230.725 5.713 233.197 5.713 A 7.01 7.01 0 0 1 234.475 5.821 Q 235.172 5.951 235.708 6.235 A 3.044 3.044 0 0 1 236.713 7.08 Q 237.456 8.053 237.67 9.72 A 11.506 11.506 0 0 1 237.757 11.182 L 237.757 24.243 L 234.497 24.243 L 234.497 22.424 A 2.866 2.866 0 0 1 233.563 23.846 Q 232.874 24.426 231.897 24.426 A 3.897 3.897 0 0 1 230.899 24.307 A 2.497 2.497 0 0 1 229.334 23.138 A 4.693 4.693 0 0 1 228.869 22.04 Q 228.556 20.963 228.54 19.434 Z M 186.524 27.722 L 183.289 27.722 L 183.289 5.933 L 186.524 5.933 L 186.524 7.581 A 2.772 2.772 0 0 1 187.61 6.232 A 3.029 3.029 0 0 1 188.469 5.842 A 2.668 2.668 0 0 1 189.167 5.75 A 3.81 3.81 0 0 1 189.883 5.814 A 2.869 2.869 0 0 1 190.589 6.042 A 2.769 2.769 0 0 1 191.944 7.482 A 3.943 3.943 0 0 1 192.121 7.977 A 9.09 9.09 0 0 1 192.37 9.167 Q 192.46 9.783 192.495 10.496 A 19.444 19.444 0 0 1 192.517 11.45 L 192.517 18.127 A 26.309 26.309 0 0 1 192.478 19.616 Q 192.362 21.666 191.895 22.614 Q 191.362 23.696 190.515 24.12 A 2.469 2.469 0 0 1 190.222 24.243 A 3.72 3.72 0 0 1 189.325 24.441 A 4.587 4.587 0 0 1 188.874 24.463 A 2.54 2.54 0 0 1 187.519 24.084 Q 186.902 23.706 186.524 23.132 L 186.524 27.722 Z M 281.653 18.396 L 281.653 10.938 A 10.26 10.26 0 0 1 281.767 9.364 Q 281.895 8.538 282.169 7.854 A 5.334 5.334 0 0 1 282.495 7.178 A 2.781 2.781 0 0 1 284.509 5.778 A 4.327 4.327 0 0 1 285.279 5.713 A 2.703 2.703 0 0 1 286.664 6.079 A 2.634 2.634 0 0 1 287.647 7.068 L 287.647 2.576 L 290.882 2.576 L 290.882 24.243 L 287.647 24.243 L 287.647 22.546 A 3.522 3.522 0 0 1 287.118 23.487 Q 286.419 24.353 285.228 24.421 A 3.623 3.623 0 0 1 285.022 24.426 A 4.171 4.171 0 0 1 284.172 24.345 Q 283.664 24.239 283.28 23.995 A 2.181 2.181 0 0 1 282.813 23.596 A 3.833 3.833 0 0 1 282.054 22.253 A 5.054 5.054 0 0 1 281.867 21.49 A 13.764 13.764 0 0 1 281.737 20.457 Q 281.684 19.879 281.665 19.219 A 27.834 27.834 0 0 1 281.653 18.396 Z M 105.616 18.372 L 105.616 11.45 A 14.576 14.576 0 0 1 105.733 9.513 Q 106.24 5.75 108.948 5.75 A 3.623 3.623 0 0 1 109.959 5.881 A 2.421 2.421 0 0 1 111.56 7.324 L 111.56 5.933 L 114.795 5.933 L 114.795 27.722 L 111.56 27.722 L 111.56 22.998 A 2.2 2.2 0 0 1 111 23.777 A 2.881 2.881 0 0 1 110.669 24.036 A 2.518 2.518 0 0 1 109.318 24.461 A 3.068 3.068 0 0 1 109.217 24.463 A 3.784 3.784 0 0 1 108.347 24.366 A 3.173 3.173 0 0 1 107.74 24.158 Q 106.519 23.584 106.067 22.107 Q 105.616 20.63 105.616 18.372 Z M 21.192 7.617 L 21.192 8.276 A 9.779 9.779 0 0 1 21.095 9.71 Q 20.844 11.4 19.936 12.157 A 2.464 2.464 0 0 1 19.312 12.537 A 2.835 2.835 0 0 1 20.976 14.066 Q 21.533 15.199 21.598 17.088 A 14.909 14.909 0 0 1 21.607 17.603 L 21.607 18.152 A 15.241 15.241 0 0 1 21.518 19.743 Q 21.329 21.415 20.742 22.421 A 3.633 3.633 0 0 1 20.478 22.815 Q 19.373 24.243 16.87 24.243 L 12.122 24.243 L 12.122 2.759 L 16.773 2.759 Q 19.128 2.759 20.137 3.831 A 2.518 2.518 0 0 1 20.178 3.876 A 3.236 3.236 0 0 1 20.77 4.873 Q 21.184 5.936 21.192 7.617 Z M 91.699 24.243 L 84.558 24.243 L 84.558 21.802 L 88.587 8.704 L 84.864 8.704 L 84.864 5.933 L 91.87 5.933 L 91.87 8.264 L 87.866 21.533 L 91.699 21.533 L 91.699 24.243 Z M 351.612 24.243 L 344.47 24.243 L 344.47 21.802 L 348.499 8.704 L 344.776 8.704 L 344.776 5.933 L 351.782 5.933 L 351.782 8.264 L 347.779 21.533 L 351.612 21.533 L 351.612 24.243 Z M 28.516 24.243 L 25.257 24.243 L 25.257 5.591 L 22.742 5.591 L 22.742 2.759 L 30.933 2.759 L 30.933 5.591 L 28.516 5.591 L 28.516 24.243 Z M 218.103 24.365 L 215.906 24.365 A 6.994 6.994 0 0 1 215.144 24.327 Q 214.358 24.24 213.908 23.959 A 1.379 1.379 0 0 1 213.611 23.712 A 1.832 1.832 0 0 1 213.278 23.15 Q 213.025 22.505 213.025 21.448 L 213.025 8.655 L 211.536 8.655 L 211.536 6.311 L 213.025 6.311 L 213.025 2.747 L 216.26 2.747 L 216.26 6.311 L 218.042 6.311 L 218.042 8.655 L 216.26 8.655 L 216.26 20.886 Q 216.26 21.439 216.505 21.653 A 0.504 0.504 0 0 0 216.596 21.716 Q 216.889 21.876 217.821 21.896 A 13.06 13.06 0 0 0 218.103 21.899 L 218.103 24.365 Z M 48.413 24.243 L 43.701 24.243 L 43.701 2.759 L 48.523 2.759 Q 50.891 2.759 51.959 4.156 A 4.535 4.535 0 0 1 52.651 5.511 Q 53.028 6.66 53.028 8.276 L 53.04 17.969 A 15.592 15.592 0 0 1 52.955 19.653 Q 52.739 21.64 51.966 22.729 Q 50.891 24.243 48.413 24.243 Z M 62.403 7.764 L 62.39 8.447 Q 61.414 8.447 60.474 8.777 A 3.286 3.286 0 0 0 59.973 8.997 Q 59.447 9.288 59.241 9.717 L 59.241 24.243 L 55.982 24.243 L 55.982 5.933 L 59.241 5.933 L 59.241 7.971 A 3.497 3.497 0 0 1 59.644 7.07 A 2.869 2.869 0 0 1 60.358 6.305 Q 61.157 5.713 62.354 5.713 A 0.043 0.043 0 0 1 62.365 5.745 Q 62.397 5.936 62.402 7.264 A 140.608 140.608 0 0 1 62.403 7.764 Z M 226.868 7.764 L 226.856 8.447 Q 225.879 8.447 224.939 8.777 A 3.286 3.286 0 0 0 224.438 8.997 Q 223.912 9.288 223.706 9.717 L 223.706 24.243 L 220.447 24.243 L 220.447 5.933 L 223.706 5.933 L 223.706 7.971 A 3.497 3.497 0 0 1 224.11 7.07 A 2.869 2.869 0 0 1 224.823 6.305 Q 225.623 5.713 226.819 5.713 A 0.043 0.043 0 0 1 226.831 5.745 Q 226.862 5.936 226.867 7.264 A 140.608 140.608 0 0 1 226.868 7.764 Z M 300.525 7.764 L 300.513 8.447 Q 299.536 8.447 298.596 8.777 A 3.286 3.286 0 0 0 298.095 8.997 Q 297.57 9.288 297.364 9.717 L 297.364 24.243 L 294.104 24.243 L 294.104 5.933 L 297.364 5.933 L 297.364 7.971 A 3.497 3.497 0 0 1 297.767 7.07 A 2.869 2.869 0 0 1 298.48 6.305 Q 299.28 5.713 300.476 5.713 A 0.043 0.043 0 0 1 300.488 5.745 Q 300.52 5.936 300.524 7.264 A 140.608 140.608 0 0 1 300.525 7.764 Z M 151.844 24.243 L 148.621 24.243 L 148.621 2.576 L 151.844 2.576 L 151.844 24.243 Z M 269.812 18.433 L 269.812 11.584 Q 269.812 5.713 274.39 5.713 A 5.016 5.016 0 0 1 276.446 6.103 Q 278.585 7.056 278.909 10.336 A 12.697 12.697 0 0 1 278.968 11.584 L 278.968 18.433 A 13.725 13.725 0 0 1 278.855 20.267 Q 278.57 22.373 277.562 23.399 A 3.076 3.076 0 0 1 276.612 24.06 A 4.339 4.339 0 0 1 275.676 24.349 Q 275.096 24.463 274.402 24.463 A 6.728 6.728 0 0 1 273.106 24.347 Q 272.384 24.205 271.841 23.889 A 2.997 2.997 0 0 1 270.813 22.913 A 5.338 5.338 0 0 1 270.203 21.556 Q 269.812 20.264 269.812 18.433 Z M 133.655 24.243 L 130.42 24.243 L 130.42 5.933 L 133.655 5.933 L 133.655 24.243 Z M 198.755 24.243 L 195.52 24.243 L 195.52 5.933 L 198.755 5.933 L 198.755 24.243 Z M 305.786 24.243 L 302.552 24.243 L 302.552 5.933 L 305.786 5.933 L 305.786 24.243 Z M 46.973 5.273 L 46.973 21.704 L 48.047 21.704 Q 48.95 21.704 49.359 21.118 Q 49.687 20.648 49.752 19.549 A 9.864 9.864 0 0 0 49.768 18.97 L 49.756 8.362 A 10.934 10.934 0 0 0 49.731 7.586 Q 49.654 6.512 49.347 5.981 A 1.356 1.356 0 0 0 48.401 5.318 A 2.282 2.282 0 0 0 47.937 5.273 L 46.973 5.273 Z M 189.258 18.75 L 189.258 11.157 A 12.516 12.516 0 0 0 189.233 10.337 Q 189.154 9.14 188.822 8.687 A 0.765 0.765 0 0 0 188.66 8.521 Q 188.398 8.33 187.998 8.325 A 1.739 1.739 0 0 0 187.976 8.325 A 1.394 1.394 0 0 0 187.498 8.403 Q 187.115 8.542 186.884 8.929 Q 186.61 9.39 186.544 10.434 A 11.43 11.43 0 0 0 186.524 11.145 L 186.524 18.884 A 12.929 12.929 0 0 0 186.542 19.596 Q 186.583 20.335 186.715 20.821 A 2.603 2.603 0 0 0 186.817 21.124 A 1.227 1.227 0 0 0 187.071 21.523 Q 187.308 21.764 187.676 21.821 A 1.574 1.574 0 0 0 187.915 21.838 Q 188.721 21.838 188.99 21.1 A 3.269 3.269 0 0 0 189.119 20.615 Q 189.223 20.088 189.249 19.309 A 16.605 16.605 0 0 0 189.258 18.75 Z M 111.56 19.006 L 111.56 11.267 A 12.052 12.052 0 0 0 111.54 10.551 Q 111.497 9.819 111.357 9.343 A 2.344 2.344 0 0 0 111.243 9.033 Q 110.971 8.437 110.349 8.352 A 1.599 1.599 0 0 0 110.132 8.337 A 1.276 1.276 0 0 0 109.72 8.4 Q 109.27 8.553 109.101 9.082 Q 108.863 9.827 108.863 11.328 L 108.863 18.921 A 14.226 14.226 0 0 0 108.886 19.768 Q 108.958 20.969 109.254 21.444 A 0.784 0.784 0 0 0 109.424 21.643 Q 109.693 21.851 110.108 21.851 A 1.516 1.516 0 0 0 110.552 21.789 A 1.111 1.111 0 0 0 111.225 21.222 Q 111.483 20.739 111.542 19.69 A 12.071 12.071 0 0 0 111.56 19.006 Z M 287.659 18.591 L 287.659 11.267 A 11.615 11.615 0 0 0 287.631 10.423 Q 287.535 9.115 287.114 8.655 A 0.836 0.836 0 0 0 286.975 8.533 A 1.147 1.147 0 0 0 286.527 8.358 A 1.538 1.538 0 0 0 286.267 8.337 Q 285.524 8.337 285.234 8.953 A 1.494 1.494 0 0 0 285.181 9.082 Q 284.912 9.827 284.912 11.304 L 284.912 18.835 A 12.813 12.813 0 0 0 284.935 19.627 Q 284.981 20.36 285.117 20.85 A 2.846 2.846 0 0 0 285.199 21.1 A 1.338 1.338 0 0 0 285.421 21.488 Q 285.681 21.797 286.116 21.843 A 1.501 1.501 0 0 0 286.273 21.851 Q 286.945 21.851 287.261 21.305 A 1.558 1.558 0 0 0 287.36 21.1 A 3.005 3.005 0 0 0 287.501 20.614 Q 287.615 20.075 287.647 19.258 A 17.287 17.287 0 0 0 287.659 18.591 Z M 275.708 19.202 L 275.708 11.011 A 10.325 10.325 0 0 0 275.686 10.309 Q 275.629 9.479 275.428 8.997 A 1.164 1.164 0 0 0 275.182 8.618 Q 274.958 8.394 274.613 8.341 A 1.482 1.482 0 0 0 274.39 8.325 A 1.321 1.321 0 0 0 273.973 8.387 Q 273.587 8.515 273.391 8.907 A 1.413 1.413 0 0 0 273.352 8.99 Q 273.108 9.57 273.076 10.673 A 11.832 11.832 0 0 0 273.072 11.011 L 273.072 19.202 A 9.534 9.534 0 0 0 273.101 19.982 Q 273.202 21.204 273.65 21.604 A 0.806 0.806 0 0 0 273.731 21.667 A 1.021 1.021 0 0 0 274.097 21.82 Q 274.237 21.85 274.4 21.851 A 1.166 1.166 0 0 0 274.402 21.851 A 1.317 1.317 0 0 0 274.817 21.789 Q 275.203 21.662 275.396 21.269 A 1.398 1.398 0 0 0 275.434 21.185 A 2.842 2.842 0 0 0 275.578 20.706 Q 275.708 20.108 275.708 19.202 Z M 314.771 16.968 L 314.771 10.974 A 8.522 8.522 0 0 0 314.743 10.266 Q 314.685 9.571 314.504 9.113 A 2.26 2.26 0 0 0 314.459 9.009 A 1.206 1.206 0 0 0 314.168 8.601 Q 313.936 8.394 313.594 8.342 A 1.602 1.602 0 0 0 313.355 8.325 Q 312.561 8.325 312.329 9.027 Q 312.107 9.699 312.098 10.857 A 12.751 12.751 0 0 0 312.097 10.962 L 312.097 16.992 A 12.824 12.824 0 0 0 312.115 17.694 Q 312.156 18.433 312.289 18.92 A 2.637 2.637 0 0 0 312.384 19.208 A 1.299 1.299 0 0 0 312.606 19.58 Q 312.861 19.874 313.28 19.915 A 1.446 1.446 0 0 0 313.422 19.922 A 1.357 1.357 0 0 0 313.847 19.859 Q 314.24 19.73 314.445 19.335 A 1.42 1.42 0 0 0 314.472 19.281 Q 314.771 18.64 314.771 16.968 Z M 15.393 13.904 L 15.393 21.704 L 16.553 21.704 A 2.207 2.207 0 0 0 17.069 21.648 A 1.286 1.286 0 0 0 17.92 21.033 A 2.055 2.055 0 0 0 18.108 20.573 Q 18.311 19.876 18.311 18.628 L 18.311 16.895 A 13.417 13.417 0 0 0 18.291 16.137 Q 18.231 15.089 17.993 14.581 A 1.106 1.106 0 0 0 17.2 13.949 A 1.888 1.888 0 0 0 16.773 13.904 L 15.393 13.904 Z M 176.917 20.52 L 176.917 14.307 A 13.413 13.413 0 0 0 176.21 14.644 Q 175.522 14.999 175.12 15.334 A 2.494 2.494 0 0 0 174.842 15.601 A 1.866 1.866 0 0 0 174.494 16.207 Q 174.393 16.486 174.346 16.831 A 4.903 4.903 0 0 0 174.304 17.493 L 174.304 19.458 A 9.815 9.815 0 0 0 174.321 20.053 Q 174.372 20.879 174.573 21.295 Q 174.842 21.851 175.446 21.851 A 1.456 1.456 0 0 0 175.932 21.772 A 1.253 1.253 0 0 0 176.435 21.442 A 1.919 1.919 0 0 0 176.8 20.897 A 1.753 1.753 0 0 0 176.917 20.52 Z M 234.449 20.52 L 234.449 14.307 A 13.413 13.413 0 0 0 233.742 14.644 Q 233.054 14.999 232.651 15.334 A 2.494 2.494 0 0 0 232.373 15.601 A 1.866 1.866 0 0 0 232.026 16.207 Q 231.925 16.486 231.878 16.831 A 4.903 4.903 0 0 0 231.836 17.493 L 231.836 19.458 A 9.815 9.815 0 0 0 231.853 20.053 Q 231.903 20.879 232.105 21.295 Q 232.373 21.851 232.978 21.851 A 1.456 1.456 0 0 0 233.464 21.772 A 1.253 1.253 0 0 0 233.966 21.442 A 1.919 1.919 0 0 0 234.332 20.897 A 1.753 1.753 0 0 0 234.449 20.52 Z M 261.035 5.273 L 261.035 11.56 L 262.342 11.56 A 2.194 2.194 0 0 0 262.679 11.536 Q 262.854 11.509 262.993 11.451 A 0.891 0.891 0 0 0 263.263 11.279 A 1.011 1.011 0 0 0 263.455 11.025 Q 263.589 10.78 263.663 10.401 A 3.686 3.686 0 0 0 263.678 10.315 Q 263.794 9.631 263.794 8.228 L 263.794 8.093 Q 263.794 6.512 263.554 5.922 A 1.105 1.105 0 0 0 263.501 5.811 A 0.871 0.871 0 0 0 263.098 5.443 Q 262.744 5.273 262.146 5.273 L 261.035 5.273 Z M 236.328 3.149 L 230.945 4.248 L 230.945 2.344 L 236.328 0 L 236.328 3.149 Z M 306.995 3.149 L 301.612 4.248 L 301.612 2.344 L 306.995 0 L 306.995 3.149 Z M 15.393 5.322 L 15.393 11.45 L 16.602 11.45 Q 17.069 11.45 17.358 11.285 A 0.849 0.849 0 0 0 17.707 10.913 A 1.644 1.644 0 0 0 17.818 10.586 Q 17.969 9.971 17.969 8.704 L 17.969 7.41 Q 17.96 6.513 17.787 6.043 A 1.108 1.108 0 0 0 17.627 5.743 Q 17.298 5.322 16.492 5.322 L 15.393 5.322 Z M 97.168 11.157 L 97.168 13.416 L 99.781 13.416 L 99.781 11.072 A 15.196 15.196 0 0 0 99.766 10.374 Q 99.734 9.695 99.637 9.251 A 2.62 2.62 0 0 0 99.543 8.917 Q 99.346 8.378 98.812 8.284 A 1.386 1.386 0 0 0 98.572 8.264 L 98.56 8.264 A 1.134 1.134 0 0 0 97.495 8.891 Q 97.243 9.353 97.195 10.155 A 5.848 5.848 0 0 0 97.193 10.205 Q 97.169 10.567 97.168 11.144 A 29.007 29.007 0 0 0 97.168 11.157 Z M 139.868 11.157 L 139.868 13.416 L 142.481 13.416 L 142.481 11.072 A 15.196 15.196 0 0 0 142.466 10.374 Q 142.434 9.695 142.337 9.251 A 2.62 2.62 0 0 0 142.243 8.917 Q 142.046 8.378 141.512 8.284 A 1.386 1.386 0 0 0 141.272 8.264 L 141.26 8.264 A 1.134 1.134 0 0 0 140.195 8.891 Q 139.943 9.353 139.896 10.155 A 5.848 5.848 0 0 0 139.893 10.205 Q 139.869 10.567 139.868 11.144 A 29.007 29.007 0 0 0 139.868 11.157 Z M 336.511 11.157 L 336.511 13.416 L 339.124 13.416 L 339.124 11.072 A 15.196 15.196 0 0 0 339.109 10.374 Q 339.078 9.695 338.98 9.251 A 2.62 2.62 0 0 0 338.886 8.917 Q 338.689 8.378 338.155 8.284 A 1.386 1.386 0 0 0 337.915 8.264 L 337.903 8.264 A 1.134 1.134 0 0 0 336.839 8.891 Q 336.586 9.353 336.539 10.155 A 5.848 5.848 0 0 0 336.536 10.205 Q 336.512 10.567 336.511 11.144 A 29.007 29.007 0 0 0 336.511 11.157 Z M 133.643 4.248 L 130.384 4.248 L 130.384 1.44 L 133.643 1.44 L 133.643 4.248 Z M 198.743 4.248 L 195.484 4.248 L 195.484 1.44 L 198.743 1.44 L 198.743 4.248 Z M 35.694 24.243 L 32.947 24.243 L 32.947 21.24 L 35.694 21.24 L 35.694 24.243 Z M 67.334 24.243 L 64.588 24.243 L 64.588 21.24 L 67.334 21.24 L 67.334 24.243 Z" vector-effect="non-scaling-stroke"/></g></svg>